<svg fill="white" xmlns="http://www.w3.org/2000/svg" xmlns:xlink="http://www.w3.org/1999/xlink" version="1.1" x="0px" y="0px" viewBox="0 0 100 125" enable-background="new 0 0 100 100" xml:space="preserve"><circle cx="50" cy="50" r="14.2"/><path d="M49.7,30.5h0.6c1.3,0,2.4-1.1,2.4-2.4v-8.7c0-1.3-1.1-2.4-2.4-2.4h-0.6c-1.3,0-2.4,1.1-2.4,2.4v8.7  C47.3,29.4,48.4,30.5,49.7,30.5z"/><path d="M64,36.4c0.9,0.9,2.4,0.9,3.4,0l6.1-6.1c0.9-0.9,0.9-2.4,0-3.4l-0.4-0.4c-0.9-0.9-2.4-0.9-3.4,0l-6.1,6.1  c-0.9,0.9-0.9,2.4,0,3.4L64,36.4z"/><path d="M80.6,47.3h-8.7c-1.3,0-2.4,1.1-2.4,2.4v0.6c0,1.3,1.1,2.4,2.4,2.4h8.7c1.3,0,2.4-1.1,2.4-2.4v-0.6  C83,48.4,81.9,47.3,80.6,47.3z"/><path d="M67.4,63.6c-0.9-0.9-2.4-0.9-3.4,0L63.6,64c-0.9,0.9-0.9,2.4,0,3.4l6.1,6.1c0.9,0.9,2.4,0.9,3.4,0l0.4-0.4  c0.9-0.9,0.9-2.4,0-3.4L67.4,63.6z"/><path d="M50.3,69.5h-0.6c-1.3,0-2.4,1.1-2.4,2.4v8.7c0,1.3,1.1,2.4,2.4,2.4h0.6c1.3,0,2.4-1.1,2.4-2.4v-8.7  C52.7,70.6,51.6,69.5,50.3,69.5z"/><path d="M36,63.6c-0.9-0.9-2.4-0.9-3.4,0l-6.1,6.1c-0.9,0.9-0.9,2.4,0,3.4l0.4,0.4c0.9,0.9,2.4,0.9,3.4,0l6.1-6.1  c0.9-0.9,0.9-2.4,0-3.4L36,63.6z"/><path d="M30.5,50.3v-0.6c0-1.3-1.1-2.4-2.4-2.4h-8.7c-1.3,0-2.4,1.1-2.4,2.4v0.6c0,1.3,1.1,2.4,2.4,2.4h8.7  C29.4,52.7,30.5,51.6,30.5,50.3z"/><path d="M32.6,36.4c0.9,0.9,2.4,0.9,3.4,0l0.4-0.4c0.9-0.9,0.9-2.4,0-3.4l-6.1-6.1c-0.9-0.9-2.4-0.9-3.4,0l-0.4,0.4  c-0.9,0.9-0.9,2.4,0,3.4L32.6,36.4z"/></svg>