<svg fill="white" xmlns="http://www.w3.org/2000/svg" xmlns:xlink="http://www.w3.org/1999/xlink" version="1.1" x="0px" y="0px" viewBox="0 0 100 125" enable-background="new 0 0 100 100" xml:space="preserve"><path d="M33.8,71.6c-1.3-0.6-2.8,0-3.4,1.3l-2.1,4.8c-0.6,1.3,0,2.9,1.3,3.5c0.3,0.2,0.7,0.2,1.1,0.2c1,0,1.9-0.6,2.4-1.6l2.1-4.8  C35.7,73.8,35.1,72.2,33.8,71.6z"/><path d="M49.4,80.1c-1.3-0.6-2.8,0-3.4,1.3l-2.1,4.8c-0.6,1.3,0,2.9,1.3,3.5c0.3,0.2,0.7,0.2,1.1,0.2c1,0,1.9-0.6,2.3-1.5l2.1-4.8  C51.3,82.3,50.7,80.7,49.4,80.1z"/><path d="M82.7,22.5c-0.4,0-0.9,0-1.3,0.1c-2.3-6-8.1-9.9-14.3-9c-3-2.3-6.5-3.6-10.2-3.6c-6.4,0-12.3,4.1-15.3,9.8  c-2.8-1.5-5.7-2.3-9-2.3c-10.3,0-18.6,7.6-20.3,18.2c-4.5,2.9-7.4,7.7-7.4,12.4c0,8.1,6.6,14.8,14.7,14.8h23.6l-1.1,2.4  c-0.6,1.3,0,2.9,1.3,3.5c0.4,0.2,0.7,0.2,1.1,0.2c1,0,1.9-0.6,2.3-1.5l2.1-4.7h16c8.4,0,15.4-6.8,15.4-14.8c0-0.5,0-0.9-0.1-1.3h2.5  c6.8,0,12.4-5.5,12.4-12.2C95.1,28,89.5,22.5,82.7,22.5z M75.1,48.2c0,5-4.8,9.4-10.2,9.4H19.6c-5.9,0-9.5-4.9-9.5-9.4  c0-3.1,2.4-6.6,5.8-8.4l1.3-0.7l0.1-1.4c0.9-8.6,7.4-14.9,15.4-14.9c2.7,0,5,0.7,7.3,2.1c1,0.6,2,1.4,3,2.4l1,1l1-0.3l0.3-0.1  c0.7-0.2,2.2-0.3,3.1-0.3c5.2,0,9.5,4,10.1,9.2l0.4,3l2.9-0.8c1-0.3,2.1-0.4,3.1-0.4c2.7,0,5.2,1.1,7.1,2.8c1.6,1.4,2.6,3.3,3,5.3  C75,47.3,75.1,47.7,75.1,48.2z M82.7,41.5h-4.1c-2.6-4.8-7.8-8.1-13.7-8.1c-0.6,0-1.2,0-1.8,0.1c-1.9-6.5-7.9-11.2-14.7-11.2  c-0.6,0-1.4,0-2.2,0.1c2-4.1,6.2-7.1,10.6-7.1c2.8,0,5.5,1.1,7.7,3.1l1.1,1L67,19c4.7-1.2,9,2.3,9.9,7.2l0.6,3l2.9-1  c0.8-0.3,1.6-0.4,2.3-0.4c3.9,0,7.1,3.1,7.1,6.9S86.6,41.5,82.7,41.5z"/></svg>