<svg fill="white" xmlns="http://www.w3.org/2000/svg" xmlns:xlink="http://www.w3.org/1999/xlink" version="1.1" x="0px" y="0px" viewBox="0 0 100 90" enable-background="new 0 0 100 100" xml:space="preserve"><path d="M72.3,32.8c-0.6,0-1.2,0-1.8,0.1c-1.9-6.5-7.9-11.2-14.7-11.2c-0.8,0-1.9,0.1-2.9,0.2c-3.9-3.4-8-5-12.8-5  c-10.3,0-18.6,7.6-20.3,18.2c-4.5,2.9-7.4,7.7-7.4,12.4c0,8.1,6.6,14.8,14.7,14.8h45.3c8.4,0,15.4-6.8,15.4-14.8  C87.7,39.6,80.6,32.8,72.3,32.8z M72.3,57.1H27c-5.9,0-9.5-4.9-9.5-9.4c0-3.1,2.4-6.6,5.8-8.4l1.3-0.7l0.1-1.4  c0.9-8.6,7.4-14.9,15.4-14.9c3.9,0,7.1,1.4,10.3,4.5l1,1l1.3-0.3c0.7-0.2,2.2-0.3,3.1-0.3c5.2,0,9.5,4,10.1,9.2l0.4,3l2.9-0.8  c1-0.3,2.1-0.4,3.1-0.4c5.5,0,10.2,4.4,10.2,9.5C82.5,52.7,77.7,57.1,72.3,57.1z"/><path d="M64.6,74.7h-2.5l1.2-2.2c0.5-0.9,0.3-2-0.6-2.5c-0.8-0.5-1.9-0.1-2.4,0.8l-1.2,2.1L58,70.8c-0.5-0.9-1.6-1.3-2.4-0.8  c-0.8,0.5-1.1,1.6-0.6,2.5l1.2,2.2h-2.5c-1,0-1.9,0.8-1.9,1.7c0,0.9,0.9,1.7,1.9,1.7h2.5L55,80.3c-0.5,0.9-0.3,2,0.6,2.5  c0.8,0.5,1.9,0.1,2.4-0.8l1.2-2.1l1.2,2.1c0.5,0.9,1.6,1.3,2.4,0.8c0.8-0.5,1.1-1.6,0.6-2.5l-1.2-2.2h2.5c1,0,1.9-0.8,1.9-1.7  C66.5,75.5,65.6,74.7,64.6,74.7z"/><path d="M43.9,70.2h-2.5l1.2-2.2c0.5-0.9,0.3-2-0.6-2.5c-0.8-0.5-1.9-0.1-2.4,0.8l-1.2,2.1l-1.2-2.1c-0.5-0.9-1.6-1.3-2.4-0.8  C34,66,33.8,67.1,34.3,68l1.2,2.2H33c-1,0-1.9,0.8-1.9,1.7c0,0.9,0.9,1.7,1.9,1.7h2.5l-1.2,2.2c-0.5,0.9-0.3,2,0.6,2.5  c0.8,0.5,1.9,0.1,2.4-0.8l1.2-2.1l1.2,2.1c0.5,0.9,1.6,1.3,2.4,0.8c0.8-0.5,1.1-1.6,0.6-2.5l-1.2-2.2h2.5c1,0,1.9-0.8,1.9-1.7  C45.8,70.9,45,70.2,43.9,70.2z"/></svg>